<?xml version="1.0" standalone="no"?>
<!DOCTYPE svg PUBLIC "-//W3C//DTD SVG 20010904//EN"
 "http://www.w3.org/TR/2001/REC-SVG-20010904/DTD/svg10.dtd">
<svg version="1.0" xmlns="http://www.w3.org/2000/svg"
 width="700.000000pt" height="700.000000pt" viewBox="0 0 700.000000 700.000000"
 preserveAspectRatio="xMidYMid meet">
<metadata>
Created by potrace 1.14, written by Peter Selinger 2001-2017
</metadata>
<g transform="translate(0.000000,700.000000) scale(0.100000,-0.100000)"
fill="#000000" stroke="none">
<path d="M1929 5470 c-1 -36 -1 -3933 0 -3947 1 -10 100 -13 461 -13 l460 0 0
734 c0 578 3 735 13 738 26 9 286 -1 327 -12 56 -15 108 -52 144 -101 15 -21
79 -130 142 -241 64 -112 125 -219 136 -238 11 -19 110 -192 220 -385 110
-192 216 -367 237 -388 40 -43 90 -72 159 -92 54 -17 952 -22 952 -6 0 5 -7
16 -15 25 -8 8 -15 17 -15 20 0 5 -114 194 -155 256 -12 19 -116 189 -231 377
-115 189 -246 402 -291 475 -45 73 -87 144 -93 158 -6 13 -14 27 -18 30 -4 3
-24 30 -44 60 -50 74 -138 159 -222 214 l-69 45 29 11 c57 22 188 92 254 136
223 149 401 394 469 644 97 359 35 759 -157 1012 -162 215 -401 355 -752 443
-52 13 -114 26 -137 29 -24 3 -62 9 -85 12 -24 3 -54 7 -68 10 -63 11 -386 16
-993 18 l-657 1 -1 -25z m1506 -686 c196 -34 324 -108 405 -234 56 -86 80
-179 81 -305 1 -124 -17 -208 -66 -310 -40 -84 -98 -148 -184 -203 -138 -90
-238 -109 -573 -111 l-248 -2 0 591 0 591 253 -2 c162 -1 282 -6 332 -15z"/>
</g>
</svg>
